<svg xmlns="http://www.w3.org/2000/svg" aria-hidden="true" width="100%" height="100%" viewBox="0 0 1400 800">
  <g transform="scale(0.3 0.3)">
    <path d="M959.8 527.6c-0.2-4.9-0.5-9.8-0.8-14.6l-0.4-7.3-0.8-7.3c-0.5-4.9-1-9.7-1.6-14.6-1.5-9.7-2.8-19.4-5-29l-1.5-7.2c-0.3-1.2-0.5-2.4-0.8-3.6l-0.9-3.6-3.7-14.3-0.5-1.8-0.5-1.8-1.1-3.5-2.2-7-2.2-7c-0.8-2.3-1.7-4.6-2.5-6.9-1.7-4.6-3.3-9.2-5.1-13.8l-5.7-13.6-1.4-3.4c-0.5-1.1-1-2.3-1.5-3.4l-3.2-6.7-3.2-6.7c-1.1-2.2-2.1-4.5-3.3-6.6l-7-13-1.8-3.2-1.9-3.2-3.8-6.3-3.8-6.3c-0.7-1-1.3-2.1-1.9-3.1l-2.1-3.1-8.3-12.2c-1.3-2.1-2.9-4-4.3-6l-4.4-5.9c-3-3.9-5.9-7.9-9.1-11.6l-9.5-11.3c-1.5-1.9-3.3-3.7-4.9-5.5l-5-5.4c-6.6-7.4-13.7-13.9-20.6-20.7l-5.2-5.1-5.4-4.8-10.9-9.6-2.7-2.4-1.4-1.2-1.4-1.1-5.7-4.5-11.4-9.1c-1-0.7-1.9-1.5-2.9-2.2l-3-2.1-5.9-4.3-11.9-8.5c-4.1-2.7-8.2-5.3-12.3-7.9l-6.1-3.9c-2.1-1.3-4.1-2.7-6.2-3.9-66.8-40.1-142.6-65.6-220.5-73.6-38.9-3.9-78.4-3.7-117.4 0.8l-7.3 0.8c-2.4 0.3-4.9 0.7-7.3 1.1l-14.6 2c-4.9 0.7-9.7 1.8-14.5 2.7l-14.4 3c-4.8 1.1-9.5 2.4-14.3 3.6l-7.1 1.8c-2.4 0.6-4.8 1.2-7.1 1.9l-14.1 4.3-7.1 2.2-1.8 0.5-1.7 0.6-3.5 1.3c-37.2 13-73 30-106.6 50.8-33.6 20.8-64.9 45.3-93.3 72.8l-0.2 0.2-0.8 0.8c-18.4 18.9-18 49.2 0.9 67.6 18.9 18.4 49.2 18 67.6-0.9 22.8-23.4 48.1-44.4 75.4-62.3 27.3-18 56.6-33 87.3-44.6l2.9-1.1 1.4-0.6 1.5-0.5 5.8-2 11.7-4c1.9-0.7 3.9-1.2 5.9-1.8l5.9-1.7c4-1.1 7.9-2.3 11.9-3.3l12-2.8c4-0.9 8-2 12.1-2.6l12.1-2.2c2-0.4 4-0.8 6.1-1.1l6.1-0.8c32.6-4.6 65.8-5.8 98.8-3.4 66 5 130.9 24.7 188.8 57.3 1.9 0.9 3.6 2.1 5.4 3.2l5.3 3.2c3.6 2.2 7.1 4.3 10.7 6.5l10.3 7 5.2 3.5 2.6 1.7c0.9 0.6 1.7 1.2 2.5 1.9l10 7.5 5 3.7 1.3 0.9 1.2 1 2.4 2 9.6 8 4.8 4 4.6 4.3c6.1 5.7 12.5 11.2 18 17.2l4.3 4.4c1.4 1.5 2.9 2.9 4.2 4.4l8.1 9.2c2.8 3 5.3 6.3 7.8 9.5l3.8 4.8c1.3 1.6 2.6 3.2 3.8 4.9l7.2 10 1.8 2.5c0.6 0.8 1.1 1.7 1.7 2.6l3.3 5.2 3.3 5.2 1.7 2.6 1.5 2.7 6.2 10.7c1.1 1.8 2 3.6 2.9 5.4l2.8 5.5 2.8 5.5c0.5 0.9 0.9 1.8 1.3 2.8l1.3 2.8 5.1 11.2 4.5 11.5c0.7 1.9 1.5 3.8 2.2 5.7l2 5.8 2 5.8 1 2.9 0.5 1.5 0.4 1.5 3.4 11.9 0.9 3c0.3 1 0.5 2 0.7 3l1.4 6c2.1 8 3.4 16.2 4.9 24.3 0.7 4.1 1.1 8.2 1.7 12.3l0.8 6.1 0.5 6.2c0.3 4.1 0.8 8.2 1 12.4l0.5 12.4c0.3 16.5-0.1 33.2-2.2 49.6l-0.6 6.2-0.9 6.2c-0.7 4.1-1.2 8.2-1.9 12.3-1.7 8.1-3.1 16.3-5.4 24.3l-1.5 6-0.8 3-0.9 3-3.6 11.9c-0.6 2-1.3 3.9-2 5.9l-2.1 5.9-2.1 5.9c-0.7 2-1.6 3.8-2.4 5.8l-4.8 11.5-5.4 11.3c-0.9 1.9-1.7 3.8-2.7 5.6l-3 5.5-3 5.5-1.5 2.8-0.7 1.4-0.8 1.3c-4.4 7.1-8.5 14.4-13.3 21.2l-3.5 5.2-1.7 2.6c-0.6 0.9-1.2 1.7-1.9 2.5l-7.5 10-1.9 2.5-2 2.4-4 4.8-4 4.8-2 2.4-2.1 2.3-8.5 9.2-2.1 2.3-2.2 2.2-4.4 4.3c-11.8 11.4-24.6 21.9-38.2 31.2-13.6 9.2-28.1 17.3-43.1 24.1-15 6.8-30.7 12.4-46.7 16.6-16 4.1-32.5 6.9-49 8.2-33.1 2.7-66.8 0-99-8.7-16.1-4.3-31.9-9.9-47.1-16.9-3.8-1.8-7.6-3.5-11.3-5.4l-11.1-5.9c-3.6-2.1-7.2-4.3-10.8-6.5-0.9-0.5-1.8-1.1-2.7-1.6l-2.6-1.8-5.2-3.5c-13.8-9.5-26.8-20.2-38.9-31.9-11.8-11.6-22.4-24.4-31.6-38.2-18.3-27.6-30.6-59.2-35.8-92.2-5.1-33-3.2-67.1 5.7-99.4 9-32.3 25.1-62.7 46.9-88.5 2.6-3.3 5.6-6.4 8.4-9.5 2.8-3.2 5.9-6 8.8-8.9 6.1-5.6 12.4-11.1 19.3-15.8 13.5-9.8 28.4-17.5 44-23.4 31.4-11.5 66-14.6 99.2-8.5 33.2 6 64.7 21.2 90.3 43.5 1.6 1.4 3.1 2.9 4.7 4.3s3.2 2.9 4.6 4.4c1.4 1.5 3 3 4.4 4.5l4.2 4.7c5.4 6.4 10.3 13.3 14.6 20.5 1 1.8 2.1 3.6 3.1 5.5l2.9 5.6 2.6 5.7c0.9 1.9 1.6 3.9 2.4 5.8 3 7.9 5.4 16 7.1 24.3 3.4 16.6 3.8 33.7 1.7 50.5-2.3 16.8-7.4 33.3-15 48.5-3.9 7.6-8.4 14.9-13.5 21.7l-1.9 2.6c-0.6 0.9-1.3 1.7-2 2.5l-4.1 4.9-4.4 4.7c-0.7 0.8-1.5 1.6-2.2 2.3l-2.3 2.2c-12.2 11.7-27 20.8-43 26.4-16 5.7-33.3 8-50.4 6.7-17.1-1.3-33.9-6.2-49.1-14.4-7.6-4.1-14.7-9-21.3-14.6-1.7-1.3-3.2-2.9-4.8-4.3-1.6-1.4-3.1-3-4.6-4.5-2.9-3.1-5.7-6.4-8.2-9.9-10.1-13.9-16.3-30.5-18.1-47.7-1.8-17.2 1.1-34.9 8.2-50.8 3.6-7.9 8.1-15.4 13.7-22.2l2.1-2.5c0.7-0.8 1.5-1.6 2.2-2.4 1.5-1.6 3-3.1 4.6-4.6 3.2-2.9 6.6-5.6 10.2-8 7.2-4.8 15.3-8.4 23.8-10.6 8.5-2.2 17.3-3.1 26.1-2.4 17.5 1.1 34.7 8.3 48 20l2.4 2.3c0.8 0.7 1.5 1.6 2.3 2.4l2.3 2.4c0.4 0.4 0.7 0.8 1.1 1.3l1 1.3 2 2.6c0.7 0.9 1.2 1.9 1.8 2.8l1.7 2.8c0.6 1 1 2 1.5 3 3.9 8 6.1 16.8 6.5 25.7 0.4 8.9-1 17.9-4.2 26.3-3.2 8.4-8.1 16.2-14.4 22.6 6.5-6.3 11.7-13.9 15.1-22.3 3.4-8.4 5.1-17.5 5-26.7-0.2-9.1-2.2-18.2-6-26.6-0.5-1-0.9-2.1-1.4-3.1l-1.7-3c-0.6-1-1.1-2-1.8-3l-2-2.8-1-1.4c-0.3-0.5-0.7-0.9-1.1-1.4l-2.3-2.6c-0.8-0.8-1.5-1.8-2.3-2.6l-2.5-2.4c-13.4-12.6-31.1-20.6-49.6-22.3-9.2-0.9-18.6-0.2-27.7 1.8-9.1 2.2-17.8 5.7-25.7 10.7-4 2.5-7.7 5.3-11.3 8.4-1.7 1.6-3.5 3.2-5.1 4.8-0.8 0.8-1.6 1.6-2.4 2.5l-2.3 2.6c-6.1 7-11.2 15-15.3 23.3-8.1 16.9-11.7 35.9-10.3 54.7 1.4 18.8 7.7 37.3 18.4 52.9 2.6 3.9 5.6 7.6 8.7 11.2 1.6 1.7 3.2 3.5 4.9 5.1 1.7 1.6 3.3 3.3 5.1 4.8 7 6.3 14.7 11.9 22.9 16.6 16.4 9.4 34.8 15.4 53.7 17.3 18.9 1.9 38.2-0.1 56.4-6 18.2-5.8 35.1-15.7 49.4-28.5l2.6-2.4c0.9-0.8 1.8-1.6 2.6-2.5l5-5.1 4.7-5.3c0.8-0.9 1.5-1.8 2.3-2.7l2.2-2.8c5.9-7.5 11.1-15.5 15.7-23.8 9-16.8 15.3-35.1 18.4-54 3-18.9 3-38.3-0.3-57.2-1.7-9.5-4.1-18.8-7.3-27.9-0.8-2.3-1.6-4.6-2.5-6.8l-2.8-6.7-3.1-6.5c-1.1-2.2-2.3-4.3-3.4-6.4-4.7-8.4-10.1-16.5-16.1-24.1l-4.7-5.6c-1.6-1.8-3.3-3.6-4.9-5.4-1.6-1.8-3.3-3.4-5.1-5.1-1.7-1.7-3.4-3.4-5.2-5-28.1-25.9-63.4-44.2-101.1-52.1-37.7-7.9-77.6-5.7-114.3 6.7-18.3 6.3-36 14.9-52 25.9-8.1 5.4-15.7 11.5-23 17.9-3.5 3.3-7.2 6.6-10.5 10-3.3 3.4-6.8 6.8-9.9 10.5-25.6 28.7-45.1 63-56.5 100-11.3 37-14.7 76.4-9.8 115 4.9 38.5 18.3 76.1 39 109.3 10.3 16.6 22.5 32.1 36.1 46.1 13.5 13.8 28.1 26.5 43.7 37.9l5.9 4.2 3 2.1c1 0.7 2 1.3 3 2 4.1 2.6 8.1 5.3 12.2 7.8l12.6 7.2c4.2 2.3 8.6 4.4 12.9 6.7 17.4 8.5 35.5 15.6 54.2 21.1 37.2 11.1 76.5 15.4 115.4 13.3 19.5-1.1 38.9-3.8 57.9-8.1 19-4.4 37.7-10.5 55.8-18.1 18.1-7.6 35.5-16.7 52.1-27.3 16.5-10.7 32.1-22.7 46.6-36l5.4-5 2.7-2.5 2.5-2.6 10.1-10.4 2.5-2.6 2.4-2.7 4.8-5.4 4.8-5.5 2.4-2.7 2.3-2.8 9-11.4c0.7-1 1.5-1.9 2.2-2.9l2.1-3 4.2-5.9c5.8-7.8 10.9-16.1 16.2-24.2l1-1.5 0.9-1.6 1.8-3.2 3.6-6.3 3.6-6.3c1.2-2.1 2.2-4.3 3.4-6.5l6.6-13 6-13.3c1-2.2 2-4.4 2.9-6.7l2.7-6.8 2.7-6.8c0.9-2.3 1.8-4.5 2.6-6.8l4.7-13.8 1.2-3.5 1-3.5 2-7c2.8-9.3 4.8-18.9 7.1-28.4 1-4.8 1.8-9.6 2.7-14.4l1.3-7.2 1-7.3c2.9-19.3 4-38.9 4.2-58.4l-0.3-13.9z" fill="#ff4d4f" p-id="1562">
      <animateTransform
        attributeType="XML"
        attributeName="transform"
        begin="0s"
        dur="30s"
        type="rotate"
        from="0 200 550"
        to="360 200 550"
        repeatCount="indefinite"
      >
      </animateTransform>
    </path>
  </g>
  <rect x="1200" y="400" rx="40" ry="40" width="150" height="150" fill="#4096ff">
    <animateTransform
      attributeType="XML"
      attributeName="transform"
      begin="0s"
      dur="30s"
      type="rotate"
      from="0 1400 550"
      to="360 1400 550"
      repeatCount="indefinite"
    >
    </animateTransform>
  </rect>
  <circle cx="1200" cy="600" r="30" fill="#73d13d">
    <animateMotion
      dur="10s"
      repeatCount="indefinite"
      path="M 0 0 L -20 40 Z"
    >
    </animateMotion>
  </circle>
</svg>
